<?xml version="1.0"?>
<svg xmlns="http://www.w3.org/2000/svg" height="512px" viewBox="0 -32 496 496" width="512px" class=""><g><path d="m120 224c-48.519531 0-88 39.480469-88 88s39.480469 88 88 88 88-39.480469 88-88-39.480469-88-88-88zm8 16.472656v28.214844l-8 8-8-8v-28.214844c2.632812-.296875 5.296875-.472656 8-.472656s5.367188.175781 8 .472656zm-80 71.527344c0-2.703125.175781-5.367188.472656-8h28.214844l8 8-8 8h-28.214844c-.296875-2.632812-.472656-5.296875-.472656-8zm64 71.527344v-28.214844l8-8 8 8v28.214844c-2.632812.296875-5.296875.472656-8 .472656s-5.367188-.175781-8-.472656zm32-3.726563v-31.113281l-24-24-24 24v31.113281c-20.398438-7.25-36.550781-23.402343-43.800781-43.800781h31.113281l24-24-24-24h-31.113281c7.25-20.398438 23.402343-36.550781 43.800781-43.800781v31.113281l24 24 24-24v-31.113281c20.398438 7.25 36.550781 23.402343 43.800781 43.800781h-31.113281l-24 24 24 24h31.113281c-7.25 20.398438-23.402343 36.550781-43.800781 43.800781zm48-67.800781c0 2.703125-.175781 5.367188-.472656 8h-28.214844l-8-8 8-8h28.214844c.296875 2.632812.472656 5.296875.472656 8zm0 0" data-original="#000000" class="active-path" data-old_color="#000000" fill="#6C6A6A"/><path d="m376 224c-48.519531 0-88 39.480469-88 88s39.480469 88 88 88 88-39.480469 88-88-39.480469-88-88-88zm0 160c-39.703125 0-72-32.296875-72-72s32.296875-72 72-72 72 32.296875 72 72-32.296875 72-72 72zm0 0" data-original="#000000" class="active-path" data-old_color="#000000" fill="#6C6A6A"/><path d="m496 152v-64c0-48.519531-39.480469-88-88-88h-320c-48.519531 0-88 39.480469-88 88v64c0 24.59375 10.023438 47.425781 27.769531 64.015625-17.050781 16.0625-27.769531 38.769531-27.769531 63.984375v64c0 48.519531 39.480469 88 88 88h320c48.519531 0 88-39.480469 88-88v-64c0-25.214844-10.71875-47.921875-27.769531-63.984375 17.746093-16.589844 27.769531-39.421875 27.769531-64.015625zm-16 128v64c0 39.703125-32.296875 72-72 72h-320c-39.703125 0-72-32.296875-72-72v-64c0-39.703125 32.296875-72 72-72h98.238281l16 48h91.53125l16-48h98.230469c39.703125 0 72 32.296875 72 72zm-276.902344-72h89.804688l-10.671875 32h-68.46875zm204.902344-16h-320c-17.449219 0-33.679688 5.167969-47.375 13.960938-15.664062-13.695313-24.625-33.023438-24.625-53.960938v-64c0-39.703125 32.296875-72 72-72h320c39.703125 0 72 32.296875 72 72v64c0 20.9375-8.960938 40.265625-24.625 53.960938-13.695312-8.792969-29.925781-13.960938-47.375-13.960938zm0 0" data-original="#000000" class="active-path" data-old_color="#000000" fill="#6C6A6A"/><path d="m376 328c-13.230469 0-24 10.769531-24 24s10.769531 24 24 24 24-10.769531 24-24-10.769531-24-24-24zm0 32c-4.414062 0-8-3.585938-8-8s3.585938-8 8-8 8 3.585938 8 8-3.585938 8-8 8zm0 0" data-original="#000000" class="active-path" data-old_color="#000000" fill="#6C6A6A"/><path d="m392 312c0 13.230469 10.769531 24 24 24s24-10.769531 24-24-10.769531-24-24-24-24 10.769531-24 24zm32 0c0 4.414062-3.585938 8-8 8s-8-3.585938-8-8 3.585938-8 8-8 8 3.585938 8 8zm0 0" data-original="#000000" class="active-path" data-old_color="#000000" fill="#6C6A6A"/><path d="m376 296c13.230469 0 24-10.769531 24-24s-10.769531-24-24-24-24 10.769531-24 24 10.769531 24 24 24zm0-32c4.414062 0 8 3.585938 8 8s-3.585938 8-8 8-8-3.585938-8-8 3.585938-8 8-8zm0 0" data-original="#000000" class="active-path" data-old_color="#000000" fill="#6C6A6A"/><path d="m360 312c0-13.230469-10.769531-24-24-24s-24 10.769531-24 24 10.769531 24 24 24 24-10.769531 24-24zm-24 8c-4.414062 0-8-3.585938-8-8s3.585938-8 8-8 8 3.585938 8 8-3.585938 8-8 8zm0 0" data-original="#000000" class="active-path" data-old_color="#000000" fill="#6C6A6A"/><path d="m272 288h-48v80h48zm-16 16v16h-16v-16zm-16 48v-16h16v16zm0 0" data-original="#000000" class="active-path" data-old_color="#000000" fill="#6C6A6A"/><path d="m64 176h368v-144h-368zm16-128h336v112h-336zm0 0" data-original="#000000" class="active-path" data-old_color="#000000" fill="#6C6A6A"/><path d="m32 96h16v16h-16zm0 0" data-original="#000000" class="active-path" data-old_color="#000000" fill="#6C6A6A"/><path d="m32 64h16v16h-16zm0 0" data-original="#000000" class="active-path" data-old_color="#000000" fill="#6C6A6A"/><path d="m32 128h16v16h-16zm0 0" data-original="#000000" class="active-path" data-old_color="#000000" fill="#6C6A6A"/><path d="m448 96h16v16h-16zm0 0" data-original="#000000" class="active-path" data-old_color="#000000" fill="#6C6A6A"/><path d="m448 64h16v16h-16zm0 0" data-original="#000000" class="active-path" data-old_color="#000000" fill="#6C6A6A"/><path d="m448 128h16v16h-16zm0 0" data-original="#000000" class="active-path" data-old_color="#000000" fill="#6C6A6A"/><path d="m264 384h16v16h-16zm0 0" data-original="#000000" class="active-path" data-old_color="#000000" fill="#6C6A6A"/><path d="m216 384h16v16h-16zm0 0" data-original="#000000" class="active-path" data-old_color="#000000" fill="#6C6A6A"/><path d="m113.757812 139 64-80.003906 12.5 10-64 80.003906zm0 0" data-original="#000000" class="active-path" data-old_color="#000000" fill="#6C6A6A"/><path d="m177.757812 138.996094 64-80 12.5 10-64 80zm0 0" data-original="#000000" class="active-path" data-old_color="#000000" fill="#6C6A6A"/><path d="m241.757812 138.996094 64-80.003906 12.5 10-64 80.003906zm0 0" data-original="#000000" class="active-path" data-old_color="#000000" fill="#6C6A6A"/><path d="m305.757812 138.992188 64-80 12.5 10-63.996093 80zm0 0" data-original="#000000" class="active-path" data-old_color="#000000" fill="#6C6A6A"/></g> </svg>
