<?xml version="1.0"?>
<svg xmlns="http://www.w3.org/2000/svg" height="512px" viewBox="-64 0 438 438.8686" width="512px"><g><path d="m263.085938 42.914062c-31.066407-29.617187-71.859376-44.835937-114.871094-42.71875-75.007813 3.601563-142.527344 69.914063-147.4375 144.804688-3.566406 54.484375 20.882812 105.816406 65.410156 137.300781 21.5 15.203125 34.820312 29.789063 34.820312 55.996094v68.570313c0 7.5625 6.152344 13.714843 13.714844 13.714843h9.664063c6.457031 11.132813 18.375 18.285157 31.480469 18.285157 13.105468 0 25.027343-7.15625 31.480468-18.285157h9.660156c7.5625 0 13.714844-6.152343 13.714844-13.714843v-68.570313c0-22.703125 9.640625-38.316406 34.375-55.679687 41.453125-29.09375 66.195313-76.636719 66.195313-127.175782 0-42.933594-17.117188-82.898437-48.207031-112.527344zm-70.648438 359.382813h-73.144531v-18.285156h73.144531zm0-36.570313h-73.144531v-18.285156h73.144531zm-44.113281-36.570312c0-.058594.027343-.105469.027343-.164062-.746093-42.285157-6.023437-112.644532-30.566406-161.769532l34.105469 16.46875c2.515625 1.210938 5.433594 1.210938 7.953125 0l34.101562-16.46875c-24.539062 49.125-29.820312 119.484375-30.566406 161.769532 0 .058593.03125.105468.03125.164062zm86.265625-61.5c-19.019532 13.34375-38.421875 31.023438-41.675782 61.5h-11.246093c.703125-39.566406 6.507812-135.796875 44.988281-178.488281 2.929688-3.246094 3.148438-8.113281.523438-11.605469-2.625-3.511719-7.363282-4.648438-11.292969-2.746094l-60.019531 28.988282-60.023438-28.988282c-3.9375-1.898437-8.664062-.757812-11.289062 2.746094-2.625 3.492188-2.40625 8.359375.519531 11.605469 38.480469 42.691406 44.285156 138.921875 44.988281 178.488281h-11.195312c-3.042969-30.050781-21.890626-47.476562-42.121094-61.785156-39.292969-27.785156-60.871094-73.085938-57.71875-121.175782 4.253906-64.925781 65.03125-124.613281 130.0625-127.734374 37.878906-1.832032 73.964844 11.554687 101.378906 37.6875 27.433594 26.144531 42.539062 61.40625 42.539062 99.292968 0 44.585938-21.839843 86.535156-58.417968 112.214844zm0 0" data-original="#000000" class="active-path" data-old_color="#000000" fill="#626262"/></g> </svg>
